<mxfile host="app.diagrams.net" modified="2021-09-19T14:58:31.863Z" agent="5.0 (Macintosh; Intel Mac OS X 10_15_7) AppleWebKit/537.36 (KHTML, like Gecko) Chrome/93.0.4577.63 Safari/537.36" etag="nC-Df_qXsHePmLsXcdWA" version="15.0.1" type="github">
  <diagram id="R2lEEEUBdFMjLlhIrx00" name="Page-1">
    <mxGraphModel dx="1426" dy="769" grid="1" gridSize="10" guides="1" tooltips="1" connect="1" arrows="1" fold="1" page="1" pageScale="1" pageWidth="850" pageHeight="1100" math="0" shadow="0" extFonts="Permanent Marker^https://fonts.googleapis.com/css?family=Permanent+Marker">
      <root>
        <mxCell id="0" />
        <mxCell id="1" parent="0" />
        <mxCell id="dUjZCsehSp_pQfjxMsY2-6" style="edgeStyle=orthogonalEdgeStyle;rounded=0;orthogonalLoop=1;jettySize=auto;html=1;exitX=1;exitY=0.5;exitDx=0;exitDy=0;entryX=0;entryY=0.5;entryDx=0;entryDy=0;" edge="1" parent="1" source="dUjZCsehSp_pQfjxMsY2-1" target="dUjZCsehSp_pQfjxMsY2-2">
          <mxGeometry relative="1" as="geometry" />
        </mxCell>
        <mxCell id="dUjZCsehSp_pQfjxMsY2-1" value="Member" style="rounded=0;whiteSpace=wrap;html=1;" vertex="1" parent="1">
          <mxGeometry x="130" y="200" width="120" height="60" as="geometry" />
        </mxCell>
        <mxCell id="dUjZCsehSp_pQfjxMsY2-7" style="edgeStyle=orthogonalEdgeStyle;rounded=0;orthogonalLoop=1;jettySize=auto;html=1;exitX=1;exitY=0.5;exitDx=0;exitDy=0;entryX=0;entryY=0.5;entryDx=0;entryDy=0;" edge="1" parent="1" source="dUjZCsehSp_pQfjxMsY2-2" target="dUjZCsehSp_pQfjxMsY2-3">
          <mxGeometry relative="1" as="geometry" />
        </mxCell>
        <mxCell id="dUjZCsehSp_pQfjxMsY2-2" value="Team" style="rhombus;whiteSpace=wrap;html=1;" vertex="1" parent="1">
          <mxGeometry x="360" y="190" width="140" height="80" as="geometry" />
        </mxCell>
        <mxCell id="dUjZCsehSp_pQfjxMsY2-15" style="edgeStyle=orthogonalEdgeStyle;rounded=0;orthogonalLoop=1;jettySize=auto;html=1;exitX=0.25;exitY=1;exitDx=0;exitDy=0;entryX=0.5;entryY=0;entryDx=0;entryDy=0;" edge="1" parent="1" source="dUjZCsehSp_pQfjxMsY2-3" target="dUjZCsehSp_pQfjxMsY2-4">
          <mxGeometry relative="1" as="geometry" />
        </mxCell>
        <mxCell id="dUjZCsehSp_pQfjxMsY2-3" value="Project" style="rounded=0;whiteSpace=wrap;html=1;" vertex="1" parent="1">
          <mxGeometry x="630" y="200" width="120" height="60" as="geometry" />
        </mxCell>
        <mxCell id="dUjZCsehSp_pQfjxMsY2-16" style="edgeStyle=orthogonalEdgeStyle;rounded=0;orthogonalLoop=1;jettySize=auto;html=1;exitX=0.5;exitY=1;exitDx=0;exitDy=0;entryX=0.75;entryY=0;entryDx=0;entryDy=0;" edge="1" parent="1" source="dUjZCsehSp_pQfjxMsY2-4" target="dUjZCsehSp_pQfjxMsY2-5">
          <mxGeometry relative="1" as="geometry" />
        </mxCell>
        <mxCell id="dUjZCsehSp_pQfjxMsY2-4" value="Has" style="rhombus;whiteSpace=wrap;html=1;" vertex="1" parent="1">
          <mxGeometry x="360" y="390" width="140" height="80" as="geometry" />
        </mxCell>
        <mxCell id="dUjZCsehSp_pQfjxMsY2-5" value="Requirements" style="rounded=0;whiteSpace=wrap;html=1;" vertex="1" parent="1">
          <mxGeometry x="130" y="580" width="120" height="60" as="geometry" />
        </mxCell>
      </root>
    </mxGraphModel>
  </diagram>
</mxfile>
